<svg xmlns="http://www.w3.org/2000/svg" viewBox="0 0 24 24" width="100" height="100">
  <defs>
    <linearGradient id="id8Grad" x1="0%" y1="0%" x2="100%" y2="100%">
      <stop offset="0%" stop-color="#F2994A" />
      <stop offset="100%" stop-color="#F2C94C" />
    </linearGradient>
  </defs>
  <path fill="url(#id8Grad)" d="M12 2.2C6.6 2.2 2.2 6.6 2.2 12c0 3.1 1.4 5.8 3.7 7.6v2.2c0 .6.4 1 1 1h10.2c.6 0 1-.4 1-1v-2.2c2.3-1.8 3.7-4.5 3.7-7.6 0-5.4-4.4-9.8-9.8-9.8zm2.2 19.6h-4.4v-1h4.4v1zm1-2h-6.4v-1h6.4v1zm-3.2-3.1c-2.7 0-4.9-2.2-4.9-4.9h2c0 1.6 1.3 2.9 2.9 2.9v2z"/>
</svg>
